<?xml version="1.0" encoding="utf-8"?>
<!-- Generator: Adobe Illustrator 28.0.0, SVG Export Plug-In . SVG Version: 6.00 Build 0)  -->
<svg version="1.1" id="Слой_1" xmlns="http://www.w3.org/2000/svg" xmlns:xlink="http://www.w3.org/1999/xlink" x="0px" y="0px"
	 viewBox="0 0 1000 607.5930176" enable-background="new 0 0 1000 607.5930176" xml:space="preserve">
<path fill="#FFCC00" d="M338.8029785,160.5894318c0,88.7020874,71.8995667,160.6016693,160.6015015,160.6016693
	s160.6015015-71.8995819,160.6015015-160.6016693C660.0059814,71.8876801,588.1063843,0,499.40448,0
	S338.8029785,71.8876801,338.8029785,160.5894318"/>
<path fill-rule="evenodd" clip-rule="evenodd" fill="#D2003C" d="M762.3859253,544.9923706v-79.8045044h-43.9434204v88.2885132
	c0,29.8822632,30.93396,54.1166382,69.0757446,54.1166382c38.1533813,0,69.0875244-24.234375,69.0875244-54.1166382
	l-0.0355225-88.2885132h-43.600647v79.8045044c0,13.2928467-11.319519,24.0691528-25.2860107,24.0691528
	C773.7054443,569.0615234,762.3859253,558.2852173,762.3859253,544.9923706"/>
<rect x="955.7376709" y="370.3236084" fill-rule="evenodd" clip-rule="evenodd" fill="#D2003C" width="44.2623444" height="232.3123169"/>
<rect x="880.895813" y="370.3236084" fill-rule="evenodd" clip-rule="evenodd" fill="#D2003C" width="44.2740631" height="232.3123169"/>
<path fill-rule="evenodd" clip-rule="evenodd" fill="#D2003C" d="M71.1553192,419.0432434H47.0980415v183.5717468H0V380.9726257
	h80.9506302c36.8301773,0,66.700737,29.3035278,66.700737,65.4716492c0,30.7686462-21.6467133,56.5863342-50.8202515,63.5814514
	l65.046524,92.5892639H106.378334l-47.0389023-72.5731201v-53.006012h10.9295502
	c17.3812714,0,31.4775467-12.9737549,31.4775467-28.9963074C101.7465286,432.0173645,88.5481262,419.0432434,71.1553192,419.0432434
	"/>
<path fill="#D2003C" d="M300.9896545,542.9366455c0.3072205-3.0131226,0.4489136-6.1326294,0.4253235-9.2993164
	c0.6734009-47.9133606-31.0403442-74.1799927-71.4270325-74.1799927c-40.3986053,0-73.1403809,33.1434937-73.1403809,74.0501709
	c0,40.8947754,32.7536774,74.0855103,73.1403809,74.0855103c30.8394775,0,54.8965759-13.9664917,67.2913818-35.8140259
	l-35.9202271-16.5775146c-4.5845642,9.8899536-15.2779236,16.8493652-27.7437897,16.8255615
	c-17.227478-0.0353394-29.9650421-12.6665039-30.1186523-27.5899658c-0.0119019-1.0280762,0-1.5004272,0-1.5004272H300.9896545z
	 M203.3313293,517.4730225c0-14.9349976,12.1112213-27.034668,27.0346832-27.034668
	c14.9351959,0,27.0465851,12.0996704,27.0465851,27.034668H203.3313293z"/>
<path fill="#D2003C" d="M477.1797485,602.6254883l-0.0708618-232.3123169h-44.0968323l-0.0119019,109.9352112
	c-11.7450256-11.6269531-27.3891602-18.6693115-44.4749146-18.6693115c-36.5465698,0-66.1807861,32.4111023-66.1807861,72.4076843
	c0,39.9849854,29.6342163,72.3842163,66.1807861,72.3842163c17.2630005,0,32.8834839-7.3258057,44.6757507-19.1889648v15.4434814
	H477.1797485z M401.0855713,568.6663208c-17.9365845,0-32.4819946-15.9158325-32.4819946-35.5536499
	c0-19.6382446,14.5454102-35.5540466,32.4819946-35.5540466c17.9364014,0,32.481781,15.915802,32.481781,35.5540466
	C433.5673523,552.7504883,419.0219727,568.6663208,401.0855713,568.6663208"/>
<path fill="#D2003C" d="M664.2867432,481.9821167c12.1113892-11.3078308,19.5080566-26.4321594,19.5080566-43.0810547
	c0-15.0651855-5.7896729-28.9133911-15.9396362-39.783783c-10.5633545-11.6150513-29.2561035-18.1374512-54.494873-18.1374512
	H537.703186v221.6543274h97.7055664c37.4564819-0.614502,67.5987549-28.8899536,67.5987549-63.5814819
	C703.0075073,513.8256226,694.1101074,495.8302917,664.2867432,481.9821167 M627.2322998,564.1376343h-42.3483276V419.0504456
	h29.5280151c12.9856567,0,23.4900513,11.8631287,23.4900513,24.8372498c0,12.9737549-10.5043945,23.4781494-23.4900513,23.4781494
	h-15.3724365v39.842926h28.192749c15.7149658,0,27.6018677,12.6903381,27.6018677,28.4172058
	C654.2669678,551.8728027,644.3061523,563.0742798,627.2322998,564.1376343"/>
<path fill="#FFCC00" d="M920.0074463,268.207489l-0.0355225-0.0472412
	c-0.1771851-0.4017029-0.4606323-0.9923706-0.5789185-1.2880554c-0.1653442-0.8506165-0.2952881-1.8429871-0.425293-2.9067078
	l-0.0236206-0.1417236c-0.3191528-2.5403748-0.6499634-5.1517944-1.7369995-7.6921692
	c-1.6896973-3.9582062-5.5179443-6.8768463-9.7835693-7.727478c-0.3189697-1.7488708-1.0634155-3.0365601-1.524231-3.6982422
	c-2.6586304-3.8522034-6.6877441-6.5342865-9.6653442-8.5193481c-0.8388672-0.5553131-1.7724609-1.1816711-2.1269531-1.4650879
	l-0.8152466-0.6382446c-1.9614868-1.5595703-4.3364868-2.3867645-6.8532715-2.3867645
	c-4.1826782,0-8.6374512,2.5995026-11.3431396,6.0381165c-0.4608154-1.2173615-1.2407837-4.0649567-1.6778564-5.6717529
	c-0.5908203-2.2097168-1.15802-4.3011475-1.7605591-5.9317474l-0.0827637-0.2242889
	c-0.0708618-0.2008514-0.1417236-0.3901672-0.2481079-0.6854858c-1.1107788-2.9658661-3.6867065-9.9015045-11.449707-11.1895447
	c-2.1031494-0.3544617-4.1826782-0.437027-6.0496216-0.5080719c-3.7575684-0.1655121-5.1990356-0.7442627-5.7189941-1.0514832
	c0.1063232-0.3310242,0.2954712-0.8628998,0.6380615-1.7016296c0.6972046-1.7016449,1.1935425-3.1548309,1.583313-4.714386
	c1.583374-5.3645325,2.6940308-13.1630707,1.4180298-20.0045776c1.8078613,0.2599792,3.8282471,0.4489288,5.8605347,0.4489288
	c6.3687744,0,13.0447998-1.3706055,18.8110352-3.8518524l0.3189697-0.1536102
	c11.4022827-5.5296783,22.6392212-18.2200012,22.0484009-34.065155l-0.0236206-0.4489288
	c-1.3114624-13.7064819-8.9564209-26.6802292-23.2773438-39.5007248c3.6984253-0.9923553,7.7041016-2.2450485,11.3197632-4.7616272
	c10.3505859-6.9478912,14.8289795-19.4135666,12.2883911-34.1953278l-0.236145-0.9923477
	c-1.6306152-7.5857811-7.2196045-8.1648941-8.8974609-8.1648941c-2.2214355,0-4.383728,0.8625374-6.0734253,2.4224625
	c-0.3425903,0.3187637-0.6970215,0.6616859-1.0751343,1.0161476c-0.8625488,0.8268394-1.8433228,1.7604103-2.6586304,2.2212486
	c-2.2095337,1.3114777-5.4352417,1.9850616-8.8619385,2.7058868c-2.5758667,0.5315094-5.4943237,1.1459579-8.3302002,2.12677
	c-12.84375,4.4309616-20.9495239,11.3550568-24.1043701,20.5952301c-1.9141846,5.6122589-1.0752563,12.3946381,2.2922974,18.6098099
	l0.2600098,0.4374008c3.9345703,6.2151642,9.4644775,11.5086594,14.3562622,16.1996078
	c6.9240723,6.6403122,13.4581909,12.9027176,14.8051758,20.4297104c0.2246704,1.3706207,0.6380615,3.9109955-3.9345703,7.361145
	c-1.8078613,1.0161438-4.324585,1.5595551-7.1013184,1.5595551c-4.0884399,0-8.6729736-1.1340637-12.2650146-3.0603485
	l-0.2008667-0.1060181c-5.6360474-2.8360596-11.319519-6.617218-16.8848877-10.3388977
	c-8.9208984-5.9670868-18.1491699-12.1350098-28.8780518-15.6327591
	c-4.9507446-2.1740112-10.1970215-3.2373962-14.8288574-4.1709671c-5.8961792-1.205101-11.449707-2.3276291-15.3842773-5.4114151
	l-0.5552979-0.3901596c-1.7133789-1.1225204-3.4620361-2.3986588-5.175415-3.6275558
	c-5.1635132-3.7335739-11.0125122-7.9636841-18.0783081-9.8423691c-2.7294922-0.8863373-5.293457-1.2527008-7.3849487-1.5599213
	c-2.6939697-0.3778992-4.265625-0.637886-5.364502-1.4297485c-1.1578369-0.8153-2.315918-1.6659393-3.4737549-2.516571
	l-0.1655273-0.1301804c-4.8443604-3.5327225-9.8308105-7.1840744-15.159668-9.8423615
	c-8.9210205-4.4666595-18.0665894-6.6641083-28.1218872-8.8619156c-0.5316772-0.1301804-1.9022827-1.7842102-2.8122559-2.9067383
	c-1.5006104-1.8199081-3.3556519-4.0883942-5.9432373-5.8960419c-7.5032349-5.9198456-16.0460205-11.3669548-27.5546875-11.3669548
	c-1.0280762,0-2.0678101,0.0353394-2.9776001,0.1063766c-6.9240723,0.472374-12.78479,4.950573-16.6132202,8.2828026
	c-8.4365845,7.3849335-17.6293335,14.0255966-26.5029907,20.4531555
	c-13.7420044,9.9491043-27.9563599,20.2288742-40.374939,33.7817307
	c-12.9973755,13.4702911-17.723877,30.2133179-21.8948364,44.9831696c-0.6025391,2.12677-1.1933594,4.2535553-1.8550415,6.4751587
	c-1.1342773,4.0764923-2.1741943,8.2355652-3.1784668,12.2767181c-5.1045532,20.5003967-9.925293,39.8548279-29.0788879,52.3089752
	c-3.0722351,1.9965973-4.7381592,5.4586334-4.3483582,9.0389557c0.3899536,3.6037598,2.8477783,6.7704926,6.2625732,8.0585175
	c1.5123291,0.567215,4.1473389,1.1459656,7.3494263,1.1697693c0.1063843,2.1033325,0.8980713,4.0883789,2.2803955,5.6951904
	c1.3352661,1.5599365,3.8756104,3.4501343,8.3184814,3.651001h0.3308716c13.210083,0,22.59198-7.5857849,30.6975708-15.4549866
	c2.8950195,2.516571,6.4632568,5.1990204,11.3314209,6.1913757l1.2997437,0.2599792l1.4533691-0.1654968
	c4.7973022-0.673233,9.0038452-1.193222,13.2220459-0.9923706c3.8637085,1.2051086,7.8338623,2.6940002,11.7922363,4.1828918
	c3.0131226,1.1343994,6.1324463,2.3041687,9.3108521,3.3909912l1.5716553,0.4846497l1.3823242-0.0591431
	c8.6374512-0.3191223,13.4819946-7.9402466,15.3015747-10.7997437l0.3544312-0.5553131l0.248291-0.6025543
	c0.2953491-0.6973724,0.5316772-1.3706055,0.6970215-2.0441895c0.0119019,0.0234375,0.0119019,0.0472412,0.0355225,0.0706787
	l0.5080566,1.8199005c1.1342773,4.0173645,2.2922974,8.1645355,4.9273071,11.2367706
	c2.4221191,2.8356934,5.7543335,4.3364868,9.5944824,4.3364868h0.0117188c1.4297485,0,2.7177734-0.2008362,3.6392822-0.3425598
	c0.1655273-0.0238037,0.3071899-0.0472412,0.4371948-0.0710449c0.1419067,0.1536255,0.2719116,0.307251,0.4017334,0.4370422
	c1.5125122,1.6306152,3.7811279,4.0649719,7.5031738,5.2109375c3.5211792,1.1697388,7.0540771,2.1033325,10.5397949,3.0011902
	c4.2301025,1.1106262,8.5783081,2.2450562,12.5247803,3.7930908l0.4371948,0.153595
	c3.1193237,0.9923706,6.5223999,1.9850769,10.1144409,1.9021301c5.6124878-0.0115356,9.0628052-2.1859131,11.9695435-4.537323
	c4.7381592-3.828064,6.6521606-8.034729,7.727478-12.1112366c0.7325439-0.1063538,1.524231-0.2953186,2.5994873-0.6378784
	c5.8726196-1.9616089,11.6031494-12.7613525,11.6622925-12.855835c0.4016724-0.7796021,0.8744507-1.5123291,1.2880249-2.12677
	c1.4414673-2.1978149,2.1622925-4.5135345,2.1386719-6.8768616c-0.0946655-5.6598511-4.4783936-10.0789185-10.1616821-10.2444305
	l-0.9216309-0.0234375c-0.4727783-0.0118866-11.5205688-0.0591278-14.6871338,0l-0.2835693,0.0115509
	c-1.3825684,0.0710297-2.6467896,0.3429108-3.7929077,0.7208252c-0.0710449-0.0944824-0.1300049-0.1889648-0.2008667-0.2715302
	c-0.8389282-1.0399475-1.7605591-3.4148102-2.9539795-4.0058289c0.0825806-0.0825653,0.3308716-0.1417084,0.4134521-0.2242889
	L696.25,227.7854462c1.9732056,0.1889496,3.9937744,0.2834167,6.0024414,0.2834167
	c7.0185547,0,13.4109497-1.1340637,19.5908203-2.2565765c5.4351807-0.9808197,10.9177856-0.4374084,16.4121704-0.4374084
	c0.5552979,0,1.1224976,0,1.701416,0.0238037l0.2955322,0.0119019c2.3631592,0,4.7381592,0.2123871,7.3021851,0.437027
	c2.5758667,0.2361908,5.4943237,0.4961853,8.4838257,0.4961853c1.0633545,0,2.0914307-0.0353394,3.107605-0.1063843
	c2.8712158-0.1298065,5.5888062-0.6144409,8.0701904-1.4297485c0.2363892,1.3825226,0.5553589,3.0603485,0.9570312,5.1517944
	l0.4018555,1.7488708c1.4296265,6.1798248,3.592041,15.5141144,14.6871338,22.7100983l1.6542358,1.0871887
	c5.1398926,3.3791199,8.2474365,5.4114075,15.9514771,6.5696411c1.9732056,0.3072205,5.659729,0.2242737,7.9992065-0.342926
	c9.6655273-2.0914307,20.5006104,0.4373779,29.1616821,6.7589417l0.7563477,0.4723816
	c0.6970215,0.4016724,1.6658936,1.2288818,2.6231079,2.0322876c2.008667,1.6897278,4.4782104,3.7692566,7.8219604,5.0100708
	c2.1741943,0.8744202,4.5256348,1.3114624,6.9951172,1.3352661h0.1772461c4.7381592,0,7.3377075-1.4416504,9.2399902-2.5169373
	c0.0236206,0,0.0236206-0.0115356,0.0355225-0.0115356c0.3070679,0.4132385,0.6378784,0.8859863,0.9334106,1.2876892
	c1.3706055,1.9143677,3.0484619,4.2892456,5.4943237,6.5342712c4.690979,4.4782104,10.5161133,4.9981689,14.5098877,4.9981689
	c1.8669434,0,3.6629028-0.1301575,5.2345581-0.2480774c0.5789185-0.0357056,1.1933594-0.0591431,1.7722778-0.0944824
	c1.1108398-0.0475769,2.1386719-0.1063538,2.8239746-0.1893005c1.1697998-0.1417236,1.949707-0.3072205,2.3395386-0.389801
	c2.0560913,1.4888916,4.2064819,1.7012634,5.175415,1.7012634c0.8389282,0,1.6660767-0.1178894,2.4813843-0.3659973
	l9.192749-3.013092c2.6112671-0.8153076,4.7263184-2.6940002,5.7660522-5.1164551
	C923.3867798,275.4744873,921.4371948,271.2678223,920.0074463,268.207489 M630.1992188,222.6098633
	c-0.2363281-0.3544617-0.4727173-0.7089233-0.7091064-1.063385c-0.2835693-0.4251404-0.5789185-0.850647-0.9333496-1.4059601
	c-1.3706055-2.020401-2.5523071-3.7930603-3.1312256-5.3760681c2.7531128,0.283432,5.6951904,0.5553131,8.7202148,0.6851349
	L630.1992188,222.6098633z"/>
<path fill="#FFCC00" d="M493.5472107,234.7142181l-4.8326721-2.410202
	c-4.1592407-2.5288239-6.9359741-7.1840668-9.8899536-12.1469116c-1.3942261-2.3395233-2.8239746-4.7497101-4.3954468-6.9594269
	c-1.5125122-2.1978149-3.6156616-4.0883942-5.3171082-5.6126251c-0.3072205-0.2599792-0.6854858-0.6144409-1.0163269-0.9097748
	c-5.1871338-14.2379761-10.681488-30.8392944-12.0167542-48.8941498
	c-0.3425598-4.5135345-2.9656982-12.2175903-5.8488159-17.1804199l-0.0944519-0.1651459
	c-8.2357483-13.4230499-27.3657227-35.6842194-28.4763489-36.8774185c-0.7325439-0.7680588-1.5125122-1.5361252-2.2095337-2.1978073
	l-0.4963379-0.4961777l-34.065155-28.3584213l-0.519989-0.3778992c-7.184082-5.0454102-9.7834167-6.1917343-15.3605042-8.2240295
	c-8.7557373-3.1782608-20.9378052-2.7293243-29.7407532,1.0399475l-0.5789185,0.2718887
	c-2.9420776,1.5714569-5.6835022,3.3199692-8.3655701,5.0335083c-4.0647888,2.5995102-7.916626,5.0569458-11.8041687,6.3568802
	l-0.7325439,0.2834244c-3.320343,1.4769897-7.1368408,2.6705475-10.8352661,3.8049698
	c-8.0583191,2.4931335-17.1802368,5.3288345-24.7304993,12.2410278c-1.8433533,1.7016373-3.3675842,3.1313858-4.6437073,4.324585
	c-1.8197327,1.7250748-3.5447998,3.3556747-4.2537231,3.8284073c-0.212738,0.0353394-0.6261597,0.0472412-1.4650879,0.0472412
	c-12.7611694,0-22.2494507,3.2965317-31.7258148,11.0362854l-0.3072205,0.2715225
	c-5.7660522,5.2462616-11.4376373,10.1261597-17.4283295,12.2060547c-2.4577942,0.8506317-5.5534821,1.205101-8.980011,1.5476608
	l-0.3308411,0.0237961c-5.7189941,0.4961777-6.9715118,0.6378937-12.4894714,1.9612579
	c-9.6891174,2.2331543-19.0708313,9.5355072-26.6212769,15.4081116c-3.3556671,2.5995178-5.5060577,4.2182159-6.4277344,4.8088684
	c-0.6616821,0.4373932-1.4769897,0.9454651-2.1269531,1.3233643c-8.2947083,4.8564606-15.4551697,9.051239-24.080719,9.051239
	l-0.4372101-0.0119019c-4.7145691-0.4136047-9.1455231-3.710144-10.6461334-7.9049072
	c-1.4178467-5.4824524,0.2480927-10.9533539,4.7028503-15.4077454c2.8829346-2.8713989,6.286026-5.7662354,9.5708313-8.566597
	c5.8369141-4.9747314,11.3667755-9.6656799,15.490509-15.2187958c6.4634399-8.672966,5.8017426-22.2139282-1.4650879-30.2014084
	c-5.5890045-6.120697-15.2662201-9.098465-23.0528412-11.0124893l-0.6616974-0.1536179
	c-0.3661804-0.106369-0.898056-0.1893082-1.4061279-0.283783l-0.4489288-0.0825729
	c-0.8861542-0.1655121-1.7369843-0.3310242-2.5995178-0.484642c-1.5124969-0.2596207-2.9184494-0.5080719-4.2773438-0.8506317
	c-2.6703644-0.7442627-5.3998718-2.6348495-8.2947006-4.631813c-2.0559235-1.4297485-4.1947708-2.9067345-6.5815353-4.194767
	l-6.3332596-3.4029121l-3.9228897,6.0143204c-2.9894867,4.57267-4.2301025,9.6891174-3.8165054,15.6204987l0.0472412,0.425499
	c1.3706055,10.7171631,9.8663406,21.9305038,20.2288666,26.6567841l0.2244644,0.1063766
	c0.3661804,0.141716,0.7444458,0.2953262,1.1225281,0.4370346c2.3986588,0.9927139,4.7499008,1.4297485,6.9477081,1.6071625
	c-5.6007156,4.7024841-11.1897202,9.6887512-16.0696106,15.6911774c-9.547226,10.5044098-10.1144409,27.554657-5.7426147,38.9807434
	c5.5534821,14.9826202,20.6424637,23.3364563,33.1672821,24.9789581c2.1859131,0.3425598,4.3600922,0.49617,6.6523895,0.49617
	c3.9109802,0,7.6685333-0.5080719,11.2250519-1.2169952v0.1417084c0.2717133,5.6360626,0.4489441,9.204483,0.8508148,11.3903961
	c0.8978729,4.7028351,3.024826,9.9137573,4.4309692,13.352005c0.047226,0.1182709,0.0944672,0.236557,0.1417084,0.3425598
	c-2.7886505,1.7607727-6.9004822,3.4386139-8.4955597,3.8522186c-2.1978149,0.2715149-4.5964661,0.389801-6.3570557,0.4842682
	c-1.2288971,0.0710449-2.1976318,0.1182709-2.7058868,0.1774139c-2.6231384,0.3191223-5.0098877,1.4297485-6.9004822,3.2612
	c-2.4220886,2.3514252-3.8754578,6.061554-5.88414,11.2133331c-0.791687,2.0557404-1.6306,4.1709747-2.4222794,5.8960419
	c-0.6616898,1.0042572-1.57164,1.914032-2.6586456,2.7650299c-1.3588943-2.4577942-3.592041-4.2420044-4.9981689-5.3645325
	l-0.0117188-0.0119019l-0.224472-0.1770477c-3.5330811-2.8241577-8.9565735-2.930542-12.8675537-0.2484589
	c-0.5789337,0.4020691-1.1580429,0.7799683-1.7369766,1.1582336l-0.4608383,0.3187561
	c-2.4812317,1.6306-5.2698746,3.4858551-8.2355652,5.9555511c-1.9497223,1.6421356-3.367569,4.0999298-4.0056381,6.8058167
	c-0.6972046,0.106369-1.3942337,0.2718811-2.0678177,0.5434113c-4.6318054,1.9024811-9.9016876,7.3376923-10.3033829,12.808609
	c-0.1536102,1.9731445-0.425499,5.5888062-0.7089233,6.6168518c-0.0710373,0.0944824-0.2010345,0.2715454-0.4727402,0.5672302
	c-3.1548233,3.5092773-4.0882111,9.8070068-0.0591354,13.8362732c2.7177811,2.7412109,13.245636,5.5534973,15.3134537,5.5534973
	h0.5080719l1.2997589-0.1774292l0.5908279-0.1651611c0.6616898-0.2008362,1.2525177-0.4373779,1.795929-0.7326965
	l2.4341812,0.2246399c1.2878571,0.1063843,2.7648392,0.4370422,4.5490494,0.8153076
	c2.7531281,0.6025391,5.8843307,1.276123,9.2636185,1.276123c3.6039429,0,6.9123764-0.803772,9.8308258-2.3752136
	c5.3172989-2.5522766,7.9404221-7.0776978,9.8780746-10.3980408c0.5671997-0.9570312,1.1344147-1.9259338,1.6661072-2.7055359
	c0.3072205,0.0825806,0.6144562,0.1651611,0.8625336,0.2362061c1.4533691,0.3778992,3.2494812,0.8506165,5.2462616,0.9689026
	c8.5546875,0.4727478,16.0223846-4.3718262,19.7207947-7.3023682c1.4533691-1.1340637,2.8356934-2.4339905,4.0882111-3.6037598
	c1.3942413-1.3114624,2.8358765-2.6586304,4.1001129-3.5211792c1.2997589-0.5314941,3.0603485-0.8034058,5.2462616-0.8034058
	c3.6984253,0,7.9521484,0.7915039,11.402298,1.4416504c7.4913025,1.8905945,15.5261993,0.9923706,21.5758514-2.4458923
	c3.2612-1.8314514,6.5460205-3.5568848,9.1810455-4.9390259l0.4370422-0.236557
	c1.4533539-0.7561493,2.7177734-1.4178467,3.7339325-1.9850616c6.1441345-3.367569,10.7878418-10.7052612,13.6000977-16.2821808
	c1.3706055-2.7412262,3.4501495-7.8457642,4.029068-9.2636108c0.5435944,0.0353394,1.1344299,0.0353394,1.7369843,0.0353394
	c4.0173492,0,8.2121277-0.6497955,11.9222565-1.2288971c2.5639954-0.4136047,4.9745483-0.7915039,6.8177185-0.8744354
	l0.3191223-0.0234528c0.7089233-0.0591278,1.4650879-0.0944672,2.2214355-0.0944672
	c3.6982422,0,9.0744934,0.4370422,13.1156311,0.8859711c3.379303,0.3782654,5.6596985,0.6973877,10.1261597,0.9097748
	c0.6025696,0.0357056,1.2406311,0.0829468,1.9378357,0.1420746c1.4061279,0.1063843,3.0129089,0.2480927,4.7499084,0.2480927
	c4.5256042,0,8.2357483-1.0871887,11.2605591-2.5760803c0.8625488,0.8391113,2.2805786,2.8360596,3.2375793,3.6513672h-0.4253235
	c-2.9067383,0-5.5653687,1.1816559-7.4085388,3.131012c-2.5169373-1.2050934-6.6759949-1.2050934-10.4808044-0.9097595
	c-4.4900818,0.3782501-8.5427856,1.0399475-13.0683899,2.0088501c-3.3556824,0.7208252-5.8251953,2.351059-7.2077026,5.4114075
	c-1.4295654,3.1667175-1.2287292,6.7823792,0.5435791,9.9372101c2.3278198,4.1594238,4.5726624,7.9167938,6.9360046,11.8988342
	l1.0514832,1.7485046c1.0871887,1.8314514,3.7692566,4.8917847,9.4527588,4.8917847
	c0.6972046,0,1.4769592-0.0353394,2.3395081-0.1063843c0.0827637,0,0.1655273,0,0.2482605-0.0115356
	c0.1417236,0.2596436,0.2834473,0.5315247,0.4370422,0.8034058c1.7016296,3.0722656,3.8165283,6.8887634,7.6213074,9.8899841
	c3.8047791,3.2611694,9.0746765,5.1279602,14.5098572,5.1279602c2.4105835,0,4.7500916-0.3544617,6.9715271-1.0514832
	c10.2797546-3.2258606,20.3350525-6.5461731,30.1303711-11.5678101h1.276123l0.8035889-0.035675
	c0.6261597-0.0706787,1.2642517-0.1179199,1.914032-0.1651611c3.9347839-0.2956848,9.866333-0.7208252,14.4273071-5.518158
	l0.425293-0.4489136l0.3427429-0.5080872c1.795929-2.5995178,3.438446-5.1871185,4.962677-7.8338623
	c0.0708313,0.3072205,0.153595,0.6259918,0.2480774,0.9451141l0.0708618,0.2246399
	c2.3158875,6.7704926,9.2755127,9.8070221,15.1717224,9.8070221l0.3425598-0.0119019
	c6.6641235-0.2953186,12.4539795-2.3867493,17.5585022-4.2301025l0.3544617-0.1297913
	c0.7206421-0.2600098,1.4297485-0.5318909,2.1859131-0.7799683l0.4961853-0.2008667
	c3.8756409-1.6659241,9.5235901-1.949707,16.3414917-0.8387146l0.8625488,0.1416931l0.8980408-0.0591431
	c7.1838989-0.4608154,12.7137756-3.9463043,17.2866211-7.6448975c8.6727905,9.1337891,19.6852722,13.7774963,32.7298889,13.7774963
	c0.4727478,0,0.945282-0.0119019,1.4533691-0.0238037l2.1269531-0.1654968l0.5908203-0.1298218
	c4.2654419-1.0042419,7.1366577-4.2539062,7.5149231-8.4602051c0.0708618-0.8272095,0.0472412-1.6544037-0.0827332-2.4459076
	c0.7797546-0.0825653,1.5597229-0.2127533,2.3276062-0.389801c4.0292664-0.8863373,7.0304871-4.0173492,7.644928-7.964035
	C499.1951599,240.3740845,497.2809448,236.5694733,493.5472107,234.7142181 M380.9773254,213.0675049
	c-0.3663635,0.3548279-0.7680664,0.6973877-1.1461487,1.0637512c-2.1505737,1.9493561-4.8800964,4.4543915-6.9951477,7.6092224
	c-1.5359192-2.5757141-2.5522461-4.4544067-3.3792725-6.1913757c3.4975586-0.49617,6.9949341-1.5599213,9.8189087-2.8122559
	c0.6027527-0.0119019,1.2052917-0.0353394,1.8078308-0.0710449
	C381.0481567,212.7959747,381.0126648,212.9376984,380.9773254,213.0675049"/>
<path fill="#D2003C" d="M689.635498,236.6069641c-0.4963379-0.6025391-1.5007935-0.6970215-2.0560913-0.6970215
	c-0.2244873,0-0.4725952,0.0119019-0.6970215,0.0472412c-1.7252808,0.2127533-3.2848511,0.3191223-4.9390259,0.3191223
	c-0.9335938,0-1.7606201-0.0238037-2.5169678-0.0591431c-0.6853027-0.0234375-1.3114624-0.0591278-1.9259033-0.0591278
	c-1.0280762,0-1.8433838,0.0710297-2.682251,0.2365417l-0.1772461,0.0234375l-0.0944824,0.1655121
	c-0.1417236,0.2361908-3.3203125,5.8134766-2.8831177,9.3108521c0.4608154,3.7930756,4.3364868,4.5726776,7.2668457,5.1636963
	c1.0397339,0.212738,2.2686768,0.437027,3.4737549,0.437027c2.0914307,0,3.4858398-0.6851196,4.1947632-2.1033325
	c1.7487183-4.536972,2.7884521-8.2590027,3.2848511-11.6738129
	C689.9899292,237.1741791,689.8008423,236.8197174,689.635498,236.6069641"/>
<path fill="#D2003C" d="M899.4798584,249.1541443c-1.8197632-2.6229553-4.9981689-4.7378235-7.5504761-6.4275665
	c-1.1697388-0.779953-2.1859131-1.4654388-2.9067383-2.0795288l-0.5080566-0.3782654
	c-0.6025391-0.49617-1.2878418-0.7561646-2.0795288-0.7561646c-2.8594971,0-6.0026245,3.4382477-6.0615845,4.6437073
	c-0.0827026,1.7250824,2.3631592,4.7969666,5.600769,8.6372681l0.6853027,0.8272095
	c1.6422729,1.9259186,3.4028931,2.9774017,5.2462158,3.1075897h0.0355225c1.8668213,0,3.3557129-0.6263733,4.927124-2.0914459
	C898.0501099,253.5497589,900.6376953,250.8323364,899.4798584,249.1541443"/>
<path fill="#D2003C" d="M912.9180298,271.5227661c-0.484436-1.0395813-0.9453125-2.0204163-1.1107788-2.7174377
	c-0.2836304-1.276123-0.4372559-2.6348267-0.6025391-3.9466858c-0.2719116-2.1148682-0.5317383-4.1118164-1.1817017-5.6479492
	c-0.8034058-1.8548889-2.9776001-3.2611847-5.0571289-3.2611847c-0.7325439,0-1.4416504,0.1655121-2.1033325,0.4965363
	c-3.1547852,1.5830078-5.0216064,3.2608337-4.5135498,6.8177185c1.7250977,5.1633301,2.5995483,8.8972473,3.7337646,13.9898987
	c0.1417236,0.7799683,0.6616821,3.3322144,1.890625,3.3322144c0.0944824,0,0.1771851-0.0118713,0.2716675-0.035675
	l9.0628052-2.977417c0.4490967-0.1420898,0.7799683-0.4255066,0.9571533-0.8272095
	C914.7967529,275.5520325,913.8395386,273.5081787,912.9180298,271.5227661"/>
<path fill="#D2003C" d="M326.3311768,244.1502075c-0.2363586-0.4017029-0.4963684-0.850647-0.7680664-1.4178619
	c-0.7799683-1.5361176-1.252533-3.1191101-1.6424866-4.5135345c-0.8153076-2.8356934-1.4887085-5.2462463-4.5254517-4.8092194
	c-4.3364868,0.6144562-8.5310669,0.910141-13.2101135,0.910141c-0.0591431,0-1.5361328,0.0115356-1.9850464,1.0161438
	c-0.5080872,1.1813049,0.6734009,2.2803955,1.9259033,3.4382477c0.6972046,0.6382599,1.4414673,1.3233795,1.9495544,2.0561066
	c0.8627014,1.2642365,1.7016296,3.0956879,2.5050354,4.8560944c1.2642212,2.8122559,2.3631287,5.2462616,3.6392822,5.6479492
	c0.5435791,0.1655121,1.1343994,0.2484589,1.8078308,0.2484589c2.9303284,0,7.0068359-1.5952606,9.9135742-3.8756561
	C327.5953979,246.3126678,327.0637207,245.4028931,326.3311768,244.1502075"/>
<path fill="#D2003C" d="M115.0821304,239.7675629l-0.2363663-0.1770477c-0.8861542-0.7208252-2.5167542-0.626358-3.592041,0.1182709
	c-0.7561569,0.5080719-1.5125046,1.0042419-2.2686615,1.5123291c-2.4103851,1.5952606-4.9036942,3.2373962-7.5385437,5.4589996
	c-0.957016,0.7915039-1.4769897,2.3157196-1.5714645,3.4973907c-0.0710373,0.9097748,0.0825806,1.6659393,0.4725571,2.1152344
	c0.2127533,0.2361908,2.1386719,2.3867493,2.5403748,2.7293243c0.6380692,0.5199738,1.6424942,1.21698,3.0722427,1.21698
	c0.8153,0,1.6895599-0.2246399,2.587616-0.6851044c4.655426-2.3514252,9.4763641-10.9890594,9.6654968-11.4971313
	C118.7095108,242.6627502,117.1144333,241.3866272,115.0821304,239.7675629"/>
<path fill="#D2003C" d="M99.7129669,260.2672424c-0.9570084-1.3706055-4.1473541-5.1045532-5.9434586-5.1045532
	c-0.1536179,0-0.2953262,0.0353394-0.4370422,0.0944824c-2.4695129,1.0161438-5.3409119,4.2301025-5.4826202,6.1441345
	c-0.6263504,8.3776245-0.8744431,9.2639771-3.1548233,11.8277893c-0.6380692,0.7208252-1.0871887,2.3633118-0.3663635,3.0956726
	c0.6499634,0.6382446,8.8855362,3.2612,9.7954865,3.2612l0.1889496-0.0234375
	c0.7325439-0.2246399,1.3469925-2.1033325,3.0131149-7.8811035c0.8978729-3.1075745,1.9141998-6.6525574,3.0484467-9.8427429
	C100.4455109,261.6378479,100.4691315,261.3306274,99.7129669,260.2672424 M94.1241455,279.1723633L94.1241455,279.1723633
	v0.0119019V279.1723633z"/>
<path fill="#D2003C" d="M490.0581055,241.7021332c-2.3395081-1.169754-5.0809326-2.5284729-5.0809326-2.5284729
	c-6.0024109-3.5211792-9.4763489-9.3461914-12.84375-14.982605c-1.3116455-2.2093506-2.682251-4.5016327-4.1592407-6.5811768
	c-0.9689331-1.4181976-2.6231384-2.8832855-4.0646057-4.1947632c-1.276123-1.1344299-2.4814148-2.2097168-2.682251-2.800354
	c-5.5062561-15.0060577-11.4850464-32.6473083-12.9384155-52.2498322
	c-0.2363892-3.0131073-2.3278198-9.5708466-4.8209534-13.8481903
	c-7.7983398-12.7141266-26.4793701-34.5025482-27.4955139-35.5897369c-0.6497803-0.6851273-1.3588867-1.3821487-1.973175-1.9731598
	l-0.4963379-0.4961777l-33.6162415-27.9329224c-6.6759949-4.6790466-8.7200012-5.5177841-13.5409546-7.266655
	c-3.0839539-1.1225204-6.7351379-1.7131729-10.5633545-1.7131729c-4.7737122,0-9.5236206,0.9097748-13.4228821,2.5876083
	c-2.682251,1.4059525-5.2817688,3.083786-7.8102417,4.6909485c-4.2892456,2.7531204-8.7438354,5.5888214-13.5647583,7.184082
	c-3.7456665,1.7012711-7.7985229,2.94207-11.7095337,4.1590729c-7.6329956,2.3514175-15.5142822,4.7973175-21.764801,10.5278473
	c-1.8078308,1.6662979-3.3084412,3.0722504-4.5492249,4.2539062c-5.7660522,5.4352112-6.3687744,6.0024261-11.0950623,6.0024261
	c-10.9533691,0-18.7044678,2.693985-26.774704,9.2755127c-6.3924103,5.8134689-12.7375641,11.2486725-20.1224976,13.812851
	c-3.3084412,1.1340637-6.9715118,1.5595551-10.8705902,1.9493561c-5.5890045,0.4846344-6.4398193,0.5437775-11.7333221,1.8080139
	c-7.9874725,1.8314514-16.4240723,8.3772736-23.5843506,13.9545593c-2.3514252,1.8314514-5.4826355,4.2301178-6.9715118,5.1990204
	c-0.7561646,0.5080719-1.7014618,1.0868225-2.4459076,1.524231c-8.8855286,5.1990204-17.274704,10.1142426-28.0154877,10.1142426
	c-0.2717133,0-0.5434113,0-0.8034058-0.0115356c-8.0110931-0.5791016-15.3251724-6.1091461-17.7710724-13.4464874
	c-2.2569427-8.247818,0.1653366-16.719574,6.6641083-23.2185364c3.095871-3.0956879,6.6287689-6.0968933,10.0316772-8.9917297
	c5.494339-4.6671448,10.6816406-9.0981064,14.2973022-13.9307632c4.1828766-5.6126175,3.7220306-15.0889816-0.9808044-20.2645645
	c-4.7026672-5.1514206-15.207077-7.7274933-19.1535797-8.6845093L132.958313,77.86306
	c-0.4017029-0.0825806-1.0989075-0.1651535-1.4769745-0.2599869c-2.4931488-0.4842758-4.8917999-0.8268433-7.3376999-1.4412918
	c-6.2506866-1.7016296-11.0714493-6.5223923-16.6132126-9.5117035c-2.12677,3.2727356-2.8356934,6.8292618-2.5639877,10.7878418
	c1.063385,8.3538437,7.999382,17.0149078,15.7151566,20.5360947c0.3189392,0.1298141,0.6616821,0.2596207,0.980629,0.3778992
	c2.4459,1.0514832,5.0100708,1.1935577,7.4204483,1.1935577c0.5199738,0,1.0397644,0,1.5597382-0.0118942
	c0.5197906-0.0119019,1.0397644-0.0119019,1.5597382-0.0119019c1.4887085,0,3.2612-0.0234375,4.8916168,0.4016953
	c1.4888916,0.3901672,3.0367279,1.8671494,3.2612,3.7573776c0.1182709,1.1109848-0.3780823,1.9616165-1.795929,3.0603485
	c-1.2878571,1.0871811-2.5995026,2.1743698-3.9109802,3.2496567c-6.6287689,5.4824448-13.4939117,11.1541977-19.0827255,18.0310516
	c-7.4440689,8.081955-7.7866364,22.0837555-4.324585,31.1703186c4.4545746,11.9576111,16.754921,18.633606,26.9519272,19.9450836
	c1.8197327,0.283432,3.6392822,0.4255066,5.5417633,0.4255066c6.014328,0,11.7450409-1.4416504,17.2866211-2.8479614
	c0.2008514-0.0587769,0.3780823-0.0706787,0.5316925-0.0706787c0.2363586,0,0.7208252,0,0.8033905,1.2642365
	c0.1774139,2.4812317,0.295517,5.281601,0.4255066,7.9993896c0.2008514,4.4071503,0.389801,8.5665894,0.7206421,10.3269958
	c0.7444458,3.9347839,2.6941681,8.6964111,3.9820251,11.851593c0.5553131,1.3468018,0.9808044,2.3867493,1.1225128,2.9182739
	c0.5080872,1.7960968,0.0355225,3.7339325-1.1461334,4.8445587c-4.2182159,3.8403015-12.7492828,6.9121857-14.3326416,7.1130371
	c-2.528656,0.3191223-5.2109222,0.4608307-7.184082,0.567215c-1.004425,0.0591278-1.7961121,0.0944672-2.2095337,0.1420746
	c-0.9335785,0.1179047-1.7014465,0.4723663-2.3631439,1.1106262c-1.1935577,1.1578522-2.5169373,4.5254211-4.0292511,8.4364166
	c-0.9216766,2.3514099-1.8786926,4.7854156-2.8358765,6.794281c-2.6584778,4.4662933-7.1721878,7.053894-11.5203857,9.5827332
	c-1.0989075,0.6378937-2.1741943,1.2523346-3.2258606,1.9021301l-0.1180954,0.1301727
	c-1.7842102,2.8237915-3.592041,5.5415649-5.8843231,7.5738831c-1.7961121,1.6540222-4.0883942,2.0441895-6.286026,2.3041687
	l-0.1655121,0.0234375l-0.0944748,0.1063843c-3.3911896,3.8875427-4.4781952,9.0627747-5.5415802,14.0728455
	c-0.1772385,0.7680664-0.3191299,1.5361023-0.5080795,2.3041687l-0.1418915,0.6970215l0.4489365,0.0472412
	c1.7842102,0.1655273,3.5684204,0.5553284,5.4826279,0.9689331c2.4931335,0.5314941,5.080925,1.0987244,7.6093979,1.0987244
	c2.38694,0,4.4545746-0.5080872,6.2979279-1.524231c3.2492981-1.5004272,4.9745483-4.4782104,6.6641006-7.3492432
	c1.0871811-1.9024658,2.2214279-3.8641052,3.8047867-5.3764343c0.9216766-1.0042419,2.0205841-1.4769897,3.4501495-1.4769897
	c1.2644196,0,2.6586456,0.3782654,3.993927,0.7327271c1.228714,0.3187866,2.4931335,0.6616821,3.7218475,0.7323608
	c5.9789886,0.3310242,11.6505585-3.4263306,14.4390259-5.6241455c1.1935577-0.9570007,2.410553-2.0914307,3.5803223-3.1905212
	c1.8195496-1.6893616,3.69841-3.4501495,5.6834717-4.6905823c2.4339905-1.1701202,5.3762512-1.7369843,9.0155334-1.7369843
	c4.5018005,0,9.2753296,0.8978882,13.0920105,1.6187134c2.0440216,0.5315094,4.1354675,0.8033905,6.2149963,0.8033905
	c3.6511841,0,7.0423737-0.8271942,9.8072052-2.410553c3.3439636-1.8902283,6.6996307-3.651001,9.4055176-5.0569458
	c1.5714569-0.8272095,2.9539642-1.5599213,4.0528717-2.1624756c4.7971344-2.6229553,8.8500214-9.9253082,10.3742371-12.9384155
	c1.4180298-2.800354,3.8403168-8.8972473,3.8639374-8.9444885l0.1180878-0.283783l-5.5888214-4.277359l-0.2363739,0.3901672
	c-0.0355072,0.0591431-3.69841,6.0968933-6.061554,8.8972626c-9.8544464,13.4111481-25.9004364,15.1362152-38.7679901,15.1362152
	c-0.8978729-0.0353394-1.7842102-0.0591431-2.6584778-0.0591431c-15.9515228,0-28.8071747,5.3645325-38.2007904,15.9158173
	c-0.4372101,0.4965515-1.2052765,0.5791321-1.5242157,0.1655273c-0.2008514-0.2599792-0.2482758-0.6616821-0.1299896-1.1459656
	c0.2480774-1.1106262,0.3661804-1.4297485,1.0397644-2.6586456c9.9961548-14.1673126,27.0346832-16.2706451,40.7766724-16.5187378
	c10.1380615-0.673584,17.5347137-2.4339905,23.9507294-5.7070923c8.247467-4.1944122,14.3326416-13.4818268,16.731308-20.819519
	c1.5714569-4.820755,2.3395233-9.9606323,3.0958557-14.9469147c0.5789337-3.9466858,1.1933899-8.03508,2.1976318-11.7805481
	c0.1655121-0.5318756,0.6972046-0.8152924,1.1225281-0.8152924c0.106369,0,0.2127533,0.0234375,0.4135895,0.0825653
	c0.5080872,0.0829468,1.5006104,0.4727478,1.5006104,1.240799c-1.3825073,7.7866364-3.2731018,18.4680939,0.2953186,27.3657227
	c1.6425018,3.5327148,5.1873016,5.2462463,10.7997437,5.2462463c3.4030914,0,7.1249542-0.5791016,10.71698-1.1463165
	c2.7767487-0.4489441,5.3998718-0.850647,7.6685486-0.9689178c0.9335632-0.0706787,1.9260864-0.1182709,2.9067383-0.1182709
	c4.4664612,0,8.7910461,0.8628998,12.9620361,1.7016296c3.6392517,0.7442627,7.4085388,1.5007935,11.2722778,1.6778412
	c0.6972046,0.0353394,1.4297485,0.0944824,2.1978149,0.1655121c1.3352661,0.0944824,2.7175903,0.2127533,4.1356201,0.2127533
	c3.2612,0,5.5652161-0.6382446,7.2549438-2.0207672c1.181488-0.9689026,0.7680664-2.410202,0.2481079-4.2301025l-0.0944824-0.330658
	c-0.0827637-0.3072357-0.1891479-0.6497955-0.3072205-1.0161591c-0.7444458-2.410553-1.8786926-6.061554,0.0117188-7.7393951
	c0.2718811-0.212738,0.673584-0.3544617,1.0399475-0.3544617c0.3189392,0,0.7325439,0.1063843,0.8742371,0.5787506
	c0.2127686,0.6973877,0.4136047,1.3944092,0.6144714,2.1033478c0.8388977,2.9186249,1.6897278,5.9317322,3.5565186,8.5074463
	c3.9111633,5.0100708,9.984436,9.7597961,17.5229797,13.6945801c4.8328247,3.3441315,10.7052612,8.9682922,11.1542053,16.8140564
	c0,3.5446167-3.4501648,6.0262146-6.0024414,7.5623322c-4.0409546,2.020401-10.3861389,4.4662933-14.2381592,4.277359
	c-2.5758972-0.130188-4.7262878-1.7726746-4.8681641-1.9024963c-3.9346008-3.6156464-3.4856873-4.8564453-6.061554-9.1572418
	c-1.3587341-2.2803802-2.7531433-4.6437073-4.5254517-6.7232361c-2.4695129-2.7177887-5.5415649-3.7458344-9.7008362-3.4148102
	c-4.0056458,0.330658-7.7038574,1.0752869-12.1112061,2.020401c-0.9335632,0.2008514-1.618866,0.7327271-1.9733276,1.5123138
	c-0.4017029,0.8744507-0.307251,1.9262848,0.2244568,2.8833008c2.2805786,4.0764923,4.5018005,7.7866364,6.8415222,11.7214203
	l1.0514832,1.7604065c0.5671997,0.957016,1.7605896,1.0753021,2.741394,1.0753021
	c0.5317078,0,1.1106262-0.0353394,1.7367859-0.0825806c0.6499939-0.0472412,1.3233948-0.0948486,1.98526-0.0948486
	c2.0440063,0,3.3320618,0.4846497,4.1709595,1.5245972c0.6970215,1.0749207,1.3469849,2.2212524,1.9614563,3.3556519
	c1.524231,2.7531433,3.1192932,5.6122742,5.7543335,7.6564636c2.4103699,2.1271362,5.8960266,3.3441467,9.5472107,3.3441467
	c1.6069946,0,3.1665344-0.2365723,4.6199036-0.6973877c10.5399475-3.3084412,20.7960815-6.6994629,30.5558777-11.9222717h3.1903381
	c0.7089233-0.0706787,1.4416504-0.1298218,2.1505737-0.177063c3.3675842-0.2480774,6.853241-0.5080566,9.3227539-3.1075745
	c3.1429138-4.5611267,5.8132935-9.1100006,8.1528015-13.9311218c2.1269531-4.324585,2.138855-8.5427856,0.0591431-11.8746643
	c-6.2151489-9.9372101-7.3257751-12.5486145-9.8544312-19.3309937l-0.0827637-0.1889496l-0.2008667-0.0472412
	c-0.7325134-0.2246399-1.4414673-0.5199738-2.1503906-0.7918549c-1.5361023-0.6025543-3.1194763-1.2288971-4.9509277-1.2288971
	l-0.2363586,0.0119019c-2.1386719,0.0710297-3.5801392,0.7327118-4.1709595,1.9143829l-0.0944824,0.1889496l11.2722778,22.2492676
	c0.7327271,1.7488708,1.5597534,3.4973755,1.1225281,6.0968933c-0.4371948,2.5995026-5.9787903,11.2843781-7.6212769,12.4068909
	c-0.4253235,0.2715302-0.7442627,0.4136047-0.9925537,0.4136047c-0.1297913,0-0.7089233-0.1182709-0.3308411-1.4297485
	c1.0516663-3.604126,2.375061-12.0996704,2.0325012-14.8170929c-0.4255066-3.1548309-9.8663635-18.799118-10.2563477-19.4608154
	l-0.1772156-0.283783c-1.4533691-2.3748627-2.9776001-4.8326569-2.8356934-7.7274933
	c0-1.3233795,1.2286987-2.2569427,2.12677-2.5995026c1.6542053-0.6144562,3.1903381-0.850647,4.8917847-1.2170105
	c4.0173645-0.8863373,8.1529846-1.7961121,9.6299744-4.041153c4.5254517-6.8649597,7.2194214-14.0371399,8.9919128-23.9505463
	c0.0827637-0.4373932,0.3899841-1.2645874,1.0161438-1.2645874c0.3663635,0.0118866,0.7325439,0.1301727,0.8861694,0.9808044
	c1.6424866,9.381897-0.5908508,19.2480621-6.1679382,27.0346832c-0.3189392,0.4608459-0.5670471,1.3471832-0.4017029,2.1624756
	c0.1419067,0.7915039,1.0280457,1.4297485,1.0280457,1.4297485c2.1740112,1.4769897,10.0789185,0.6378937,15.8096313-2.3752136
	c4.3718262,0.0829315,8.5074463-0.6851349,12.4892883-1.4412994c1.2644348-0.2365417,2.528656-0.4727325,3.7692871-0.673584
	c0.401886,0.2246552,0.7091064,0.5791168,0.791687,0.8625336c-3.3556824,3.8046112-5.4234924,8.0704193-6.4749756,13.3992615
	c-0.9335938,0.9570007-1.9614563,1.8905792-2.9658813,2.8241577c-3.6865234,3.3672028-7.644928,7.1130371-7.8338623,11.9337921
	c0,0-0.1063843,1.7250824,1.7486877,1.867157c0.6025391,0.047226,1.2525024-0.2718964,1.8905945-0.5318756
	c0.6970215-0.2718964,1.4061279-0.5553131,1.9495239-0.4846344c0.6027222,0.0948334,1.0161438,0.567215,1.0752869,1.1816559
	l-4.1828613,6.1445007c-1.583374,2.5638123-0.9216919,5.2934875-0.271698,7.9402313
	c0.4725342,1.4650879,0.2480774,2.5995178,0.6497803,3.8756561c1.0516663,3.0718842,4.7736816,4.5254364,7.7631836,4.5254364
	c5.4707336-0.2481079,10.4450989-2.0442047,15.254303-3.7811737c0.8625488-0.3072357,1.7131958-0.626358,2.5993347-0.9335785
	c5.2700806-2.2684937,12.3122559-2.7531281,20.6897278-1.3821564c6.7468567-0.4254913,11.8039856-4.8683472,16.7076721-9.204834
	c2.0795288,0.0591431,4.2654419,1.299942,6.4868774,3.6985931c7.2904663,7.8100739,16.2232361,11.6150513,27.3065796,11.6150513
	c0.4253235,0,0.8269958,0,1.2642212-0.0119019l1.1344299-0.0829468c1.1578674-0.2834167,1.4533691-0.8506317,1.524231-1.5595551
	c0.0708618-0.8863373-0.6027222-1.7250824-1.8314514-2.3157349l-6.2151794-3.2968903
	c-4.9745483-3.1667175-10.3861389-6.9594269-11.8750305-11.9694977c-1.6069641-5.3288422-4.6199036-10.7759399-6.853241-14.4035034
	c-0.425293-0.7089233-0.9097595-1.4059448-1.4297485-2.1505737c-0.8742371-1.2642365-1.7842102-2.5638123-2.4220886-3.9228821
	l0.0353394-0.0234375c6.7704773,2.4340057,10.5516663,7.4321747,15.1126099,15.762207
	c3.4028931,6.2151794,12.2412109,12.9030762,20.606781,12.9030762c1.1107788,0,2.1860657-0.1298065,3.2139587-0.3544617
	c0.8980408-0.1889496,1.4888611-0.7442627,1.6069641-1.5242157
	C490.9087524,242.7301941,490.8378906,242.0923004,490.0581055,241.7021332 M369.1933289,141.5862122
	c-0.1772156,0.6616821-0.5908203,1.0871887-1.0280457,1.0871887c-0.2008362,0-0.6853027-0.0944824-0.850647-0.9335785
	c-1.7486877-8.9798279-2.8122559-13.3992462-4.8681641-17.5464249c-0.6497803-1.3233719-1.4650879-2.4339981-2.1741943-3.4148102
	c-1.5123291-2.0560913-2.8120728-3.8522034-1.3587036-6.2508621c0.4372253-0.7089233,1.5123291-1.1931992,2.6820679-1.1931992
	c0.5791321,0,1.1225281,0.1182709,1.5716553,0.3425598c1.736969,0.8153,3.4265442,2.9186325,5.1635132,6.4041214
	C372.6672974,128.9431152,369.2288513,141.4682922,369.1933289,141.5862122 M425.6851807,231.0917053
	c0,0-0.2719116,2.5403748-1.4769897,3.6275635c-1.1816711,1.0868225-5.4707336,1.6893768-7.7157898,1.5833588
	c-2.2450256-0.0829315-3.013092-0.390152-3.4975586-1.0871887c-0.5199585-0.7680511,0.3308411-2.2803802,0.3308411-2.2803802
	c0.271698-0.567215,2.918457-6.0381165,8.2121277-7.467865c0,0,1.7131958-0.6259918,3.3320618,0.1774139
	C426.5004578,226.447998,425.7324219,230.5126038,425.6851807,231.0917053 M441.0458679,195.7619629
	c-0.3191223,2.079895-0.8153076,3.084137-1.0989075,3.5684204c-0.2835999,0.4965363-0.7563477,1.6071625-2.2922974,1.6071625
	c-1.6897278,0-1.5597229-1.9850616-1.5833435-2.2688599c0,0-0.1891479-5.5177765-1.252533-7.8457642
	c-1.1578674-2.5284729-6.7113342-9.6534119-9.9135742-9.3580933c-0.8034058,0.0710449-2.8948364,1.3233795-4.4545898,3.3556824
	c-1.8786621,2.4458923-1.8786621,2.7415771-2.4576111,3.1075745c-0.5789185,0.3782654-1.3352661,0.1774139-1.5833435-1.2642365
	c-0.2600098-1.4416504-0.519989-2.6229401,0.153595-5.3760681c0.6853027-2.7650146,1.3469849-3.3556671,2.1622925-5.3407288
	c0,0,1.6661072-3.8641052,2.2922974-4.8092194c1.7250671-2.6114044,4.0409546-2.4458923,4.0409546-2.4458923
	c0.6263733,0.0353241,2.5995178-0.2127533,4.7264709,2.4458923c2.4576111,3.0956879,1.9259338,2.8122559,2.6348572,3.9109802
	c0.6853027,1.0990906,1.4180298,2.2331543,3.4620361,4.4428558c2.0323181,2.2097168,4.2892456,6.5458374,4.903717,9.2282867
	C441.4120483,191.4020386,441.3648071,193.6824188,441.0458679,195.7619629"/>
<path fill="#D2003C" d="M896.9229126,278.7320862c-0.6617432-5.4474792-2.1150513-10.5635376-4.5609741-16.0816956
	l-0.1182861-0.2599792l-0.2834473,0.0119019c-5.2344971,0.3191223-8.4838257-3.9228821-11.6268921-8.0228271
	c-1.0397949-1.347168-2.0205688-2.6352081-3.0484619-3.7458344c-1.6306152-1.8905792-3.4384155-3.4620514-5.0335083-4.8679962
	c-1.831604-1.6186981-3.4384155-3.0131073-4.0528564-4.2892456c-0.7444458-1.5361176-1.5361328-4.5019989-2.315918-7.3730316
	c-0.555481-2.0442047-1.0872192-3.9820251-1.5597534-5.3053894c-0.1182861-0.2599945-0.2244873-0.5434113-0.3191528-0.8272095
	c-0.9333496-2.5284729-2.1150513-5.6832886-5.3760376-6.227066c-1.6661377-0.2596283-3.4147949-0.3425598-5.1281738-0.4132385
	c-4.7264404-0.2008514-9.4882812-1.0280457-11.93396-4.4194183c-2.256958-3.1191254-1.3116455-6.0143127-0.0474243-9.1100006
	c0.555481-1.346817,0.9571533-2.5050354,1.276123-3.8046112c1.7014771-5.7070923,2.2686768-12.8201447,0.9925537-17.7948761
	c-0.2125854-0.8033905-0.4725952-1.5948944-0.7206421-2.3629608c-0.6972046-2.0795288-1.5006104-5.2228088-0.980835-6.1917267
	c0.5199585-0.957016,1.0634155-1.1225281,2.008667-1.1225281c0.8272095,0,1.7842407,0.2718964,2.682312,0.5318756
	c0.6380615,0.1889496,1.1578369,0.283432,1.7486572,0.4255066c2.3631592,0.5668488,5.8607178,1.2050934,9.0863647,1.2050934
	c5.3173218,0,10.8944092-1.1463165,15.7151489-3.2139587c9.1102295-4.430954,18.1019287-14.41539,17.6530151-26.7631531
	c-1.2052612-12.4891205-8.9328003-24.5887985-23.6553955-36.9480972c-0.3544922-0.3072281-0.7325439-0.6144485-1.1106567-0.9335709
	c-1.9260864-1.5833664-4.2183838-3.5684204-4.2773438-5.3526382c-0.0710449-1.7723083,4.5254517-2.8475952,7.4085693-3.4973831
	c0.6616821-0.1655121,1.276123-0.2953262,1.7842407-0.425499l0.7442627-0.2008514
	c3.6630249-0.9570084,7.4676514-1.9493561,10.5635376-4.1118317c10.5161133-7.0658035,10.1261597-19.5314789,8.944458-26.3848953
	c-0.05896-0.1770554-0.1063843-0.4017029-0.1535645-0.6616898c-0.2008667-0.8978729-0.4489746-2.0084991-1.2523804-2.0084991
	c-0.2718506,0-0.5318604,0.1179123-0.8035889,0.3778992c-0.3071899,0.2837906-0.6261597,0.591011-0.9452515,0.8863373
	c-1.2051392,1.1459656-2.5523071,2.4339981-4.0882568,3.3084335c-3.3320312,1.9612656-7.3495483,2.8122635-11.2369385,3.6275558
	c-2.4576416,0.5080795-5.0217896,1.0395889-7.3968506,1.8667908c-10.4333496,3.6037598-16.9202271,8.8972549-19.2597656,15.7268753
	c-1.2052612,3.5565186-0.5671997,8.0347137,1.7842407,12.3477554c3.4028931,5.3998718,8.3538208,10.1380539,13.1273193,14.7226257
	c7.5268555,7.2075272,15.3134766,14.6634903,17.1213379,24.8015366c0.9805908,5.8841553-1.4178467,10.8585205-7.3258057,15.1715698
	c-3.0722656,1.8667755-7.0187378,2.8594971-11.4260864,2.8594971c-5.3880005,0-11.2014771-1.4654541-15.951355-4.0058289
	c-6.1089478-3.0603485-12.0169067-7.0066681-17.7357178-10.8231812c-8.59021-5.7543182-17.475769-11.6860657-27.3302002-14.8408966
	c-4.2773438-1.9259186-9.0036621-2.8829346-13.5881958-3.8164978c-6.5223999-1.3114777-13.2573853-2.6820908-18.6455078-6.9122009
	c-1.8670044-1.2169952-3.6984253-2.5403748-5.4943848-3.8284073c-4.9036865-3.5565186-9.9608154-7.2194214-15.7151489-8.672966
	c-2.1386719-0.7442627-4.2418213-1.0395889-6.2623901-1.3233719c-3.1431274-0.4608383-6.1087646-0.8744354-8.8265991-2.8237991
	c-1.2286987-0.8744354-2.4694824-1.7842102-3.710083-2.693985c-4.5609741-3.3441315-9.2872314-6.794281-14.0137329-9.1576004
	c-8.1174927-4.0527039-16.7902222-6.1322327-26.4438477-8.2474747c-3.0958862-0.7208176-5.0098877-3.0603409-7.0423584-5.5415802
	c-1.3587036-1.6659317-2.7648315-3.367569-4.560791-4.5845718c-7.4440308-5.9079437-14.2028198-9.8308258-22.899231-9.8308258
	c-0.8035889,0-1.6425171,0.0237961-2.4458618,0.0944748c-4.572876,0.3072281-9.0391846,3.7692719-11.9931641,6.3568802
	c-8.6965942,7.609581-18.0429688,14.3681641-27.0701904,20.9024582
	c-13.4464722,9.7482529-27.3657227,19.8152695-39.2641602,32.8128204
	c-11.6859131,12.0639801-15.9515381,27.1529541-20.0633545,41.757309c-0.6144409,2.1386719-1.2172241,4.3007812-1.8552856,6.4394531
	c-1.0986938,3.9820251-2.12677,8.094223-3.1075439,12.0524445c-5.3643799,21.5403442-10.9178467,43.0334473-32.4109497,56.9880066
	c-1.4061279,0.9216766-0.9216919,2.7177887,0.4135742,3.2258606c0.5671997,0.2123871,10.8233643,3.296524,18.5510254-5.7781372
	c5.6124878-6.5815277,8.4483643-12.9384155,14.9588623-19.9097443c0.2244263-0.2127533,0.9807739-0.9335785,1.583313-0.7442627
	c0.4489746,0.1417084,0.6497803,0.4017029,0.4372559,1.1932068c-0.7444458,2.800354-2.5405884,5.2343597-4.1947632,7.6095734
	c-1.6778564,2.4221039-3.4265747,4.9390411-4.3009644,7.8219757c-2.0559692,6.1798248-7.8103027,11.1660919-12.9028931,15.5732574
	c0,0-0.8034058,0.5199738-1.2761841,1.1109772c-0.4725342,0.5906525-0.4608154,0.8387451-0.4608154,0.8387451
	c-0.1417236,1.3825073,0.9453125,2.2097168,3.1195068,2.3041687c12.052063,0,20.6186523-8.578476,28.9016113-16.8612823
	c0.3662109-0.3663635,0.8034058-0.5318756,1.3942261-0.5318756c0.4372559,0,0.7561646-0.0591431,1.3234253,0.2246552
	c0.5671997,0.2718811,1.8197021,1.5242157,2.800354,2.3986511c2.7175903,2.4221039,5.5179443,4.9152374,9.133606,5.6598663
	l0.0710449,0.0115356l0.0825806-0.0115356c4.383728-0.6144562,8.3421021-1.1109924,12.4066772-1.1109924
	c1.1580811,0,2.2805786,0.0476074,3.2731323,0.1063843c4.3954468,1.3352661,8.7791748,2.9896698,13.0328979,4.5845642
	c3.0011597,1.1344299,6.1087646,2.304184,9.2044678,3.3441315l0.0710449,0.0353394l0.0708618-0.0119019
	c4.017334-0.1417084,6.9004517-3.8756409,8.9918823-7.184082c0.9925537-2.3276215,0.5197754-4.6437073,0.0825806-6.8649597
	c-0.2834473-1.3706055-0.5552979-2.6820831-0.4842529-3.9582214c0.7442627-0.3663483,1.760376-0.3072205,2.8475952-0.1417084
	c0.9569702,0.1417084,2.3630981,0,2.8239746-0.0710297c1.0516357-0.1417236,2.1622925-1.3706207,1.8431396-2.9539795
	c-0.8034058-4.0173492-2.8239746-6.4870605-4.8207397-9.5708313c-1.7489014-2.6233215-3.4266968-5.1045532-4.265625-7.9049072
	c-1.335083-3.6748047-4.135437-6.7232513-6.8532715-9.6772156c-3.1428833-3.426712-6.1087646-6.6522064-6.9949341-10.7878418
	c0,0-0.2835693-0.8625336,0.0355225-1.1935577c0.3189697-0.3187714,1.1461182,0.0591278,1.1461182,0.0591278
	c1.4533691,1.063385,2.9065552,2.2331543,4.3009644,3.3913727c4.5726929,3.7101288,9.2991943,7.5385437,15.041626,8.4126129
	c5.3526001,0.5318756,11.1896973,1.193573,16.9085083,0.7208252c1.524231-0.2480774,2.2686768-1.5714569,1.9022827-2.8475952
	c-2.2686768-4.8326569-4.619873-10.0078735-6.0615234-15.6677399c-1.217041-4.2654419-3.8873901-15.478775-1.1578979-23.9270935
	c0.2600098-0.8271942,0.8270264-1.1225281,1.3233643-1.1225281c0.0472412,0,0.1063843,0.0115356,0.2008667,0.0472412
	c0.90979,0.2361908,1.5478516,1.3114777,1.6778564,2.1859131l0.0708618,1.0987244
	c0.8153076,11.5205536,1.583374,22.4028778,8.6257324,31.6668549c1.8786621,2.9893036,4.5726318,4.5842133,7.1721802,6.1322327
	c1.8078003,1.0752869,3.8637085,1.9969635,5.175415,3.6747894c1.4650879,1.8667908,1.7369385,5.0807495,0.6970215,7.0423737
	l-8.6372681,12.7490997c-2.0325317,2.9067383-4.0175781,6.0381165-4.7382202,9.2163849
	c-0.6380615,3.2139587-0.366333,6.3334351-0.1063843,9.3465424l0.05896,0.7208252
	c-0.2008057-0.0710297-0.425293-0.3310242-0.6261597-0.6854858c-3.4856567-6.3215332-4.1945801-11.6622772-2.4222412-15.7506714
	c1.1461182-2.6582794,8.1765747-12.619278,10.2324829-15.9039154c0.6499634-1.0399475,1.1936035-2.1033478,0.6380615-2.8241577
	c-0.6970215-0.8859863-5.9787598-3.1548309-7.3612671-3.1548309c-0.1062012,0-0.1889648,0.0119019-0.2717285,0.0353394
	c-1.2406006,0.3544617-2.0322876,1.4888916-2.7412109,2.4931335c-0.1419067,0.2127533-0.2955322,0.4255066-0.4727173,0.673584
	l-10.6578979,19.3425446l-0.2363281,0.7208099c-0.6261597,1.9378357-1.1461792,3.604126-0.6380615,5.8488159
	c0.5789185,2.9067383,1.5124512,6.0262146,2.1741943,8.2950592c0.1771851,0.6378937,0.3661499,1.2761383,0.543396,1.9021301
	c0.9452515,3.3556671,1.8433228,6.5223846,3.3203125,8.2593536c0.9570312,1.1106262,2.1150513,1.6187134,3.6984253,1.6187134
	c0.791687,0,1.6187134-0.1179199,2.434021-0.2599792c1.3233643-0.2008667,2.7531128-0.3659973,3.8637085-0.0944824
	c1.5952759,0.4017029,2.7177734,1.5952454,3.8875732,2.8594971c1.1697388,1.2642212,2.3867188,2.5641785,4.1592407,3.0956726
	c3.28479,1.0990906,6.7468872,1.9969788,10.0906372,2.8713989c4.4545898,1.1697693,9.0510254,2.3748779,13.4347534,4.0765076
	c2.4695435,0.7915039,5.116272,1.5480042,7.6921387,1.5361328c2.8357544-0.0119019,4.5963135-0.7918701,7.0777588-2.8003845
	c3.4737549-2.8122559,4.5962524-5.5891724,5.4470825-9.5827332c0.6970215-3.6867065,1.9141846-3.9466858,4.5726929-4.0883789
	c1.2880249-0.0591431,1.5006104-0.0119019,2.7531128-0.4251556c1.3352661-0.449295,5.1871338-5.163681,7.1959839-9.0393219
	c0.543396-1.0514832,1.1461182-2.0088654,1.6895142-2.8356934c0.5908813-0.8982391,0.8625488-1.6778412,0.8508301-2.4459076
	c-0.0236206-1.9024811-1.6069946-2.5169373-2.6350098-2.5403748l-0.6734009-0.0237885c0,0-11.3786621-0.0591431-14.4981689,0
	c-4.6672974,0.2599792-6.7113647,4.7500763-8.3419189,8.7082977c-0.6380615,1.5361176-1.2289429,2.9777679-2.0206299,4.2539062
	c-1.2288818,2.2331543-3.6392212,3.5918579-6.6168213,3.5092926c-0.8625488-0.0238037-2.7767334-0.5318756-3.7692871-0.7680664
	c-6.1442871-1.5007935-12.5012207-3.0841522-15.0770874-9.1691437c-0.2481079-1.0399475-0.6616821-3.2020569,0.90979-5.0219727
	c3.28479-3.8164978,7.5976562-8.6138306,12.0403442-12.0639648c6.1679077-1.2995758,12.3475952-5.8607178,15.7387695-11.6269531
	c0.7089233-0.9923401,1.0752563-2.1621094,1.4533691-3.2846222c0.5671997-1.7250824,1.0752563-3.3675842,2.6586304-4.383728
	c1.0042725-0.49617,1.7959595-0.3191223,2.008667,0.5434113c0.5908813,3.1905212-0.6261597,6.2862091-1.8078003,9.2993164
	c-0.2600098,0.673584-0.5199585,1.3352814-0.7680664,1.9850616l-0.1653442,0.4842834l0.5081177,0.047226
	c1.701416,0.1774139,3.4620361,0.2599945,5.2225952,0.2599945c6.3213501,0,12.3712158-1.0752869,18.208313-2.1386719
	c5.7779541-1.0395966,11.7684326-2.1148834,17.960022-2.1148834c0.6616821,0,1.3116455,0.0119019,1.9969482,0.0353394
	c2.7412109,0,5.4116211,0.2361908,8.0111084,0.4727478c2.5286255,0.2242737,5.1517944,0.4608307,7.7630005,0.4608307
	c0.9335938,0,1.8197632-0.0238037,2.6586304-0.0829315c7.916626-0.3544617,13.6592407-3.9582214,15.3843384-9.6180878
	c1.642334-4.8445587,1.4650879-13.2099304-0.5199585-24.8960114c-0.0944824-0.567215-0.1653442-0.9216766-0.1653442-0.9923553
	c0-0.0710297,0-0.1420746,0.0117188-0.2246399c0.0119019-0.4370422,0.0236206-0.8863373,0.5791016-1.1816711
	c0.7325439-0.3897858,1.5123291,0,1.8903809,0.9454803c3.0012207,8.3891754,4.7265015,18.066391,5.6362915,24.7185974
	c1.0280151,6.4632568,3.7219849,12.9975586,8.2946777,20.0042267c5.6598511,8.4367828,14.982605,13.2694397,25.5578613,13.2694397
	c2.4576416,0,4.9390259-0.4489441,7.3849487-0.7799683c1.7131958-0.2242889,2.3512573-0.1298065,3.4856567-0.1298065
	c13.4581909,0,25.1796265,5.8368988,33.9115601,16.8847198c0,0,0.1655273,0.1893311,0.1419067,0.5318909
	c-0.0238037,0.4608154-0.673584,0.9216614-1.2761841,0.673584l-1.1461182-0.8863525
	c-7.5976562-5.8960266-15.4551392-11.9813843-25.2979126-13.1864929c-1.7486572-0.3191223-3.5684204-0.4727325-5.5534668-0.4727325
	c-2.8475952,0-5.6479492,0.3191223-8.3538208,0.6263428c-2.7058716,0.3072357-5.2698975,0.6144562-7.8574829,0.6144562
	c-3.3676147,0-6.2034912-0.5080719-8.9328003-1.6071625c-11.3314209-3.7220306-20.583313-16.7664642-23.5372925-24.8722076
	c-0.1419067-0.2837982-0.5435791-0.7561646-1.2052612-0.7561646c-0.2953491,0-0.6144409,0.106369-0.9453125,0.3187561
	c-1.3114624,0.8153076-1.5359497,1.2646027-1.7369995,2.079895c-0.1652832,0.673233,0.9335938,6.4866943,1.4180298,8.9798431
	c1.4887085,6.167923,2.4931641,13.4464874,11.6503906,19.3897552c6.0615845,3.9228973,7.8457642,5.4709167,14.5336914,6.4870605
	c1.1223145,0.1655121,3.9228516,0.0710449,5.0335083-0.2361908c2.8594971-0.6144409,5.8134766-0.9454651,8.7674561-0.9454651
	c9.3227539,0,18.8344116,3.190506,26.7865601,8.9920807c1.3469849,0.7561646,2.5995483,1.8195496,3.8165283,2.8475952
	c1.7133789,1.4416504,3.4856567,2.9420776,5.5770874,3.710144c1.3233643,0.5318604,2.7648315,0.7915039,4.2773438,0.8034058
	c3.6037598,0.0238037,4.5137329-1.0868225,7.0895996-2.3514404c1.1342773-0.5552979,2.2921143-0.7561646,3.0248413-0.7561646
	c2.8948364,0,4.5135498,2.2688599,6.5577393,5.1283569c1.2288818,1.7131653,2.6113892,3.6629028,4.4901123,5.38797
	c2.6467285,2.5403748,6.2860107,2.8710327,9.1572266,2.8710327c1.5597534,0,3.1548462-0.1063843,4.690918-0.2123718
	c1.5006104-0.1182861,3.2848511-0.1420898,4.2182617-0.2600098c0.9335327-0.0944519,1.4415894-0.2365417,1.4415894-0.2365417
	L896.9229126,278.7320862z M590.0170288,235.6510468c-0.5436401,0.9573669-1.8078613,1.5007782-3.4620972,1.5007782
	c-1.4533691,0-2.9777222-0.4254913-3.9111328-1.0871887c-2.1741943-1.5476532-3.4265137-4.1237335-3.6273804-7.4674988
	c-0.0355225-0.7680664-0.0827637-1.5714722,0.9689331-2.363327c0.543396-0.3072205,0.8150635-0.3072205,1.4414673-0.3072205
	c2.0559082,0,5.3762207,1.3118286,7.124939,3.4620514C588.6817017,229.5541382,591.4229736,233.1697998,590.0170288,235.6510468
	 M592.982666,188.1040649c-0.7561646,0.9923401-1.9495239,1.7131653-3.0839233,1.1578522
	c-1.0634155-0.389801-2.0203857-1.7604065-2.6231689-2.8122559c-0.7444458-1.3233795-1.3469849-2.4693298-3.1075439-2.3395233
	c-0.1300049,0,0,0-0.2717285,0.0238037c-1.5478516,0.1417084-2.7175903,0.9097748-3.9464722,1.843338
	c-0.6380615,0.4842834-3.107605,2.3514252-3.7337646,2.8829346c-3.3675537,2.8357086-6.7706909,5.7662354-7.5740967,9.771698
	c-0.3427124,1.4297485-0.3427124,1.4297485-0.4725342,2.12677c-0.2363892,1.3944092-0.484436,2.8360596-1.6661377,3.5803223
	l-0.1063232,0.0472412c-0.1653442,0.0472412-0.3425903,0.0710297-0.5081177,0.0710297
	c-0.5199585,0-1.0397339-0.212738-1.4650879-0.5553131c-0.4135742-0.3663483-0.6853027-0.7327118-0.6853027-1.3590698
	c-0.6144409-6.8530579,1.7368164-13.0209808,6.5341187-17.4047089c3.1193237-2.5522614,5.6243286-5.7662201,8.0583496-8.8853455
	c1.1816406-1.5126953,2.3986816-3.0841522,3.6748047-4.5254364c0.9571533-0.9808197,2.5286255-0.1536102,5.1281738,2.6701813
	c1.098877,1.1935577,4.4662476,6.9594269,6.0142822,10.7525024
	C593.7271118,186.8279266,592.982666,188.1040649,592.982666,188.1040649 M649.7344971,108.3702469
	c-1.2997437,1.240799-2.6586304,2.4815979-4.0292358,3.7220383c-4.809021,4.3956146-9.7835693,8.921051-13.0447998,14.060936
	c-1.5478516,2.1152267-2.6939697,4.5254288-3.7929077,6.8653183c-0.1299438,0.2480774-0.4016724,0.7796021-0.9333496,0.7796021
	c-0.248291,0-0.4963989-0.1179199-0.7208252-0.3425598c-0.9334106-0.9451141-0.1772461-7.3968353,1.0397339-10.6342316
	c2.6467896-7.1721878,8.6846924-14.6634903,16.5540771-20.571434c0.8389282-0.5318756,1.9141846-0.8390961,2.918457-0.8390961
	c1.4888916,0,2.6231079,0.673584,3.0958862,1.8552475C651.7904053,104.8494263,651.4240723,106.6808777,649.7344971,108.3702469"/>
</svg>
