<svg width="32" height="32" viewBox="0 0 32 32" fill="none" xmlns="http://www.w3.org/2000/svg">
<path d="M16 0.5C24.5604 0.5 31.5 7.43962 31.5 16C31.5 24.5604 24.5604 31.5 16 31.5C7.43957 31.5 0.500014 24.5604 0.5 16C0.5 7.43962 7.43957 0.500006 16 0.5ZM20.9502 6.08398C20.4733 5.79335 19.8549 5.85219 19.3418 6.21777L8.66406 13.8242C8.11226 14.2174 7.84701 14.8317 7.90918 15.3926C7.94049 15.6748 8.05773 15.9552 8.28027 16.168C8.50741 16.3851 8.81096 16.5 9.15039 16.5H12.4619V16.4785H14.5215L12.8105 17.082L12.5664 17.1689L12.4961 17.418L10.5273 24.4111C10.3539 25.0274 10.5576 25.616 11.0498 25.916C11.5268 26.2067 12.1451 26.1478 12.6582 25.7822L23.3359 18.1758C23.8878 17.7826 24.153 17.1683 24.0908 16.6074C24.0595 16.3252 23.9423 16.0448 23.7197 15.832C23.4926 15.6149 23.1891 15.5 22.8496 15.5H19.2461L21.4727 7.58887C21.6461 6.97254 21.4424 6.38397 20.9502 6.08398Z" fill="#9DFF3A" stroke="black"/>
</svg>
